REM MD5 99213ce9fd7f6ab000c3a79e7396261c
FILE "Euro Demo 31 (Europe).bin" BINARY
  TRACK 01 MODE2/2352
    INDEX 01 00:00:00
  TRACK 02 AUDIO
    INDEX 00 23:48:21
    INDEX 01 23:50:21
  TRACK 03 AUDIO
    INDEX 00 24:00:36
    INDEX 01 24:02:36
REM LEADOUT 27:03:67
